<svg xmlns="http://www.w3.org/2000/svg" width="56" height="56" viewBox="0 0 56 56">
    <path fill="#FFF" fill-rule="evenodd" d="M27.586 0c15.233 0 27.586 12.35 27.586 27.586 0 15.235-12.353 27.586-27.586 27.586C12.349 55.172 0 42.822 0 27.586 0 12.35 12.349 0 27.586 0zm3.924 21.627c-3.455 0-5.61 2.157-5.61 5.705 0 3.315 2.06 5.376 5.407 5.376 3.455 0 5.61-2.155 5.61-5.688 0-3.33-2.062-5.393-5.407-5.393zm12.828.032c-4.234 0-6.295 2.459-6.295 5.82 0 3.214 2.015 5.23 5.726 5.23 2.14 0 3.316-.724 3.682-1.09.365-.366.505-.74.505-1.322v-2.693c0-.856-.459-1.315-1.315-1.315h-2.553c-.638 0-.988.466-.988 1.167 0 .7.35 1.167.988 1.167h.825v1.58s-.241.109-.73.109c-1.768 0-2.763-1.082-2.763-3.152 0-2.054 1.09-2.965 2.7-2.965 1.525 0 1.93.576 2.567.576.6 0 1.066-.45 1.066-1.135 0-.475-.132-.779-.427-1.075-.436-.435-1.549-.902-2.988-.902zm-32.056.148h-2.52c-.911 0-1.448.537-1.448 1.447v7.829c0 .91.537 1.446 1.447 1.446h2.397c3.47 0 4.886-1.416 4.886-3.377 0-1.276-.855-2.125-2.023-2.31v-.032c1.082-.35 1.673-1.183 1.673-2.327 0-1.446-1.23-2.676-4.412-2.676zm7.87-.062c-1.113 0-1.65.529-1.65 1.447v7.89c0 .903.537 1.447 1.447 1.447h4.49c.677 0 1.09-.42 1.09-1.292 0-.87-.42-1.291-1.09-1.291h-2.638v-6.754c0-.918-.529-1.447-1.65-1.447zm-7.87 6.404c1.036 0 1.432.396 1.432 1.05 0 .638-.459 1.097-1.432 1.097h-.763V28.15zm19.111-3.993c1.175 0 2.147.974 2.147 3.036 0 2.038-.95 2.987-2.116 2.987-1.174 0-2.148-.972-2.148-3.019 0-2.054.949-3.004 2.117-3.004zm-19.235-.116c.902 0 1.252.35 1.252.95 0 .606-.411 1.018-1.221 1.018h-.67V24.04z"/>
</svg>
