<svg xmlns="http://www.w3.org/2000/svg" width="22" height="16" viewBox="0 0 22 16">
    <g fill="#606060">
        <path d="M19.971-.346c.29 0 .525.235.525.525 0 .257-.185.472-.43.516l-.095.009H0c-.29 0-.525-.235-.525-.525 0-.258.186-.473.43-.517L0-.346h19.971zM19.971 6.468c.29 0 .525.235.525.525 0 .258-.185.472-.43.516l-.095.009H0c-.29 0-.525-.235-.525-.525 0-.258.186-.472.43-.517L0 6.468h19.971zM19.971 13.282c.29 0 .525.235.525.525 0 .258-.185.472-.43.517l-.095.008H0c-.29 0-.525-.235-.525-.525 0-.258.186-.472.43-.516L0 13.282h19.971z" transform="translate(1 1)"/>
    </g>
</svg>
