<svg xmlns="http://www.w3.org/2000/svg" width="30" height="28" viewBox="0 0 30 28">
    <g fill="none" fill-rule="evenodd" stroke="#606060" stroke-linecap="round" stroke-width="1.48">
        <path d="M0 0s3.746 1.82 4.028 2.12l2.93 15.698c.218 1.134 1.2 1.962 2.354 1.985h15.42" transform="translate(1 1)"/>
        <path d="M4.615 4.77h23.189l-2.221 10.495s-.264 1.229-1.42 1.229H6.699M14.182 23.803c0 1.28-1.037 2.317-2.317 2.317-1.28 0-2.316-1.037-2.316-2.317 0-1.28 1.037-2.317 2.316-2.317 1.28 0 2.317 1.038 2.317 2.317h0zM22.652 23.803c.001.94-.563 1.788-1.431 2.148-.868.36-1.867.162-2.532-.502-.664-.664-.863-1.664-.502-2.532.36-.867 1.208-1.432 2.148-1.43 1.28 0 2.317 1.037 2.317 2.316h0z" transform="translate(1 1)"/>
    </g>
</svg>
