<svg xmlns="http://www.w3.org/2000/svg" width="30" height="27" viewBox="0 0 30 27">
    <path fill="#606060" d="M14.998 3.415l-.07-.076C12.105.305 8.806-.486 5.429.958 1.862 2.489-.159 6.214.333 10.28c.517 4.25 3.49 8.032 8.6 12.116l.605.478c.41.32.834.643 1.294.987l1.947 1.43 1.627 1.19.592.442.907-.675 2.155-1.57c1.181-.864 2.102-1.56 3.003-2.279 5.113-4.084 8.087-7.868 8.604-12.12.492-4.066-1.53-7.79-5.094-9.322-3.365-1.445-6.677-.652-9.505 2.38l-.07.077zm8.991-1.097c2.946 1.266 4.624 4.356 4.208 7.785-.444 3.654-3.072 7.083-7.66 10.82l-.398.32c-.587.47-1.186.93-1.865 1.438l-3.276 2.397-2.188-1.595c-1.038-.759-1.868-1.384-2.659-2.008l-.295-.234c-4.831-3.862-7.597-7.38-8.053-11.139-.416-3.428 1.262-6.518 4.208-7.784 3.004-1.284 5.854-.45 8.413 2.695l.574.705.574-.705c2.56-3.144 5.426-3.98 8.417-2.695z"/>
</svg>
