<svg xmlns="http://www.w3.org/2000/svg" width="27" height="30" viewBox="0 0 27 30">
    <g fill="none" fill-rule="evenodd" stroke="#606060" stroke-linecap="round" stroke-width="1.48">
        <path d="M18.958 8.025c0 4.43-2.874 8.025-6.415 8.025-3.54 0-6.414-3.596-6.414-8.025S9.003 0 12.543 0c3.54 0 6.415 3.591 6.415 8.025zM17.051 17.267s7.187 1.514 7.535 3.865c.25 1.68.407 4.119.462 5.368.012.212-.064.419-.21.572-.144.154-.346.242-.558.243H.77c-.212 0-.414-.089-.56-.243-.145-.153-.22-.36-.209-.572.074-1.25.232-3.702.463-5.368.342-2.351 7.534-3.865 7.534-3.865" transform="translate(1 1)"/>
    </g>
</svg>
