<svg xmlns="http://www.w3.org/2000/svg" width="493" height="76" viewBox="0 0 493 76">
    <g fill="#2A6395" fill-rule="evenodd">
        <path d="M10.849 64.034c4.655-2.255 12.108-5.713 16.298-8.451 2.216-1.136.127-6.894-2.854-5.375-3.88 2.57-11.084 5.918-16.293 8.45-3.325 1.663-.382 7.016 2.849 5.376M10.849 9.498c4.655 2.25 12.108 5.714 16.298 8.446 2.216 1.142.127 6.9-2.854 5.38C9.33 15.224 23.96 23.049 8 14.875c-3.325-1.663-.382-7.016 2.849-5.376M2.819 39.85c17.733-.11.903.294 18.354-.216 2.538 0 3.192-6.096-.128-6.096-17.179.516.106.1-18.354.222-3.718 0-3.496 6.096.128 6.096M485.648 62.577c-.782 1.485-2.184 2.3-3.846 1.457 0 0-2.494-1.369-5.874-2.981-2.605-1.247-2.311-.987-3.608-1.663-2.97-1.507-6.81-3.824-6.81-3.824-1.165-.587-1.198-2.432-.405-3.923.792-1.49 1.956-2.117 3.253-1.452 0 0 3.879 2.333 6.65 3.735 1.191.604.897.355 3.53 1.607 3.48 1.663 6.123 3.109 6.123 3.109 1.762.892 1.785 2.433.992 3.918M485.648 10.978c-.782-1.485-2.184-2.305-3.846-1.457 0 0-2.494 1.368-5.874 2.975-2.605 1.253-2.311.992-3.608 1.663-2.97 1.507-6.81 3.818-6.81 3.818-1.165.593-1.198 2.439-.405 3.93.792 1.49 1.956 2.11 3.253 1.451 0 0 3.879-2.333 6.65-3.735 1.191-.604.897-.355 3.53-1.607 3.48-1.663 6.123-3.109 6.123-3.109 1.762-.898 1.785-2.433.992-3.918M492.636 36.819c-.04 1.662-.92 3.042-2.771 3.037 0 0-2.843-.1-6.59 0-2.886.06-2.51.15-3.962.15-3.325 0-7.802-.35-7.802-.35-1.302 0-2.161-1.662-2.123-3.325.04-1.662.798-2.77 2.256-2.77 0 0 4.505.337 7.603.348 1.347 0 .959-.094 3.88-.15 3.845-.077 6.86 0 6.86 0 1.984 0 2.687 1.37 2.654 3.049M61.82 51.903c0 4.262-2.576 6.65-7.63 6.65s-7.553-2.4-7.553-6.65v-36.32c0-4.19 2.471-6.65 6.65-6.65h21.346c2.899 0 4.76 1.862 4.76 5.658 0 3.796-1.861 5.658-4.76 5.658H61.821v8.667h10.202c2.771 0 4.622 1.934 4.622 5.592 0 3.657-1.862 5.586-4.622 5.586H61.821v11.81zM104.558 34.602c0-2.255-1.147-3.402-5.874-3.402-6.162 0-8.135 2.078-10.712 2.078-2.36 0-4.156-1.663-4.156-4.622-.05-1.466.538-2.881 1.612-3.88 1.973-1.972 7.703-4.26 16.659-4.26 11.349 0 17.151 4.471 17.151 13.21v9.244c0 6.733 1.829 7.697 1.829 10.568 0 2.87-2.184 5.193-6.65 5.193-4.19 0-6.59-2.15-7.703-4.517h-.105s-3.081 4.8-11.14 4.8c-8.384 0-13.648-5.265-13.648-12.464 0-7.199 7.415-10.995 17.694-10.995 1.694.007 3.384.151 5.054.433l-.01-1.386zm0 9.133c-1.22-.302-2.473-.445-3.73-.427-2.648 0-4.117.892-4.117 2.649 0 1.613 1.109 2.721 3.298 2.721 1.777.001 3.455-.816 4.55-2.217v-2.726zM126.697 27.049c0-4.012 2.15-6.157 6.163-6.157 3.879 0 5.541 1.862 6.372 4.367l.25.754h.15s2.937-5.448 10.889-5.448c4.987 0 8.988 1.94 11.388 5.542 0 0 3.547-5.542 11.532-5.542 8.418 0 13.932 5.542 13.932 15.19v16.37c0 4.079-2.36 6.445-7.41 6.445-5.048 0-7.414-2.366-7.414-6.445V37.223c0-3.724-1.324-5.054-3.37-5.054-3.114 0-4.726 3.73-4.726 3.73v16.226c0 4.079-2.367 6.445-7.415 6.445-5.049 0-7.432-2.372-7.432-6.45V37.217c0-3.724-1.324-5.054-3.363-5.054-3.115 0-4.727 3.73-4.727 3.73v16.225c0 4.079-2.367 6.445-7.415 6.445-5.049 0-7.415-2.366-7.415-6.445l.011-25.07zM194.616 27.476c0-4.085 2.36-6.445 7.415-6.445 5.054 0 7.425 2.36 7.425 6.445v24.643c0 4.079-2.36 6.445-7.409 6.445-5.048 0-7.414-2.366-7.414-6.445l-.017-24.643zm16.331-20.97l-4.577-.72c-.313-.084-.584-.282-.76-.555l-2-4.178c-.243-.617-.828-1.03-1.49-1.053-.665-.001-1.267.393-1.53 1.003l-2.1 4.134c-.179.275-.454.473-.77.554l-4.595.615c-.665.025-1.245.458-1.458 1.088-.213.63-.014 1.327.5 1.75l3.28 3.27c.201.256.301.577.283.903l-.837 4.56c-.189.641.041 1.331.577 1.73.535.4 1.262.424 1.823.06l4.128-2.111c.306-.114.642-.114.948 0l4.073 2.217c.552.374 1.278.368 1.823-.017.545-.385.795-1.067.626-1.712l-.731-4.583c-.012-.324.095-.641.299-.892l3.358-3.198c.524-.41.74-1.102.541-1.738-.198-.635-.768-1.082-1.433-1.122l.022-.005zM216.788 11.682c0-4.084 2.366-6.45 7.415-6.45 5.048 0 7.42 2.366 7.42 6.45V43.59c0 3.325.715 4.05 1.757 4.05.282 0 .748-.071 1.108-.071 1.54 0 3.148 1.252 3.148 3.973.095 1.719-.541 3.398-1.751 4.622-1.253 1.252-3.442 2.543-7.914 2.543-7.381 0-11.177-3.796-11.177-11.282l-.006-35.744z"/>
        <path d="M238.96 31.521c-.681-2.111-.82-2.937-.82-3.88 0-4.189 4.433-6.699 8.235-6.699 1.664-.061 3.285.536 4.511 1.662 1.042 1.037 1.396 2.505 1.94 4.583l3.829 14.863c.643 2.544 1.108 5.802 1.108 5.802h.144s.505-3.291 1.109-5.802l3.685-15.112c.432-1.79.93-3.37 1.9-4.334.97-.964 2.433-1.662 4.584-1.662 3.618 0 7.808 2.294 7.808 6.196-.032 1.214-.274 2.414-.715 3.546l-6.484 19.845c-5.303 16.26-12.784 25.07-26.046 25.07-3.652 0-6.195-.97-7.664-2.438-1.175-1.172-1.822-2.773-1.79-4.433 0-2.865 1.901-4.766 4.766-4.766 1.895 0 2.77.393 4.511.393 2.544 0 4.262-.787 5.442-2.144L238.96 31.52zM322.96 8.24c6.02 0 9.815 1.79 11.5 3.475 1.397 1.326 2.142 3.197 2.04 5.12 0 3.01-2.04 5.193-4.833 5.193-2.4 0-3.73-2.04-8.135-2.04-4.938 0-9.632 4.19-9.632 14.005 0 8.778 4.334 13.111 10.064 13.111 4.694 0 6.018-2.006 8.379-2.006 2.36 0 4.334 2.04 4.334 4.904.04 1.809-.704 3.546-2.04 4.766-1.934 1.934-5.874 4.157-13.3 4.157-13.965 0-22.992-9.028-22.992-23.464 0-16.364 9.631-27.22 24.605-27.22M341.902 11.682c0-4.084 2.367-6.45 7.415-6.45 5.049 0 7.415 2.366 7.415 6.45V43.59c0 3.325.715 4.05 1.757 4.05.282 0 .748-.071 1.108-.071 1.54 0 3.153 1.252 3.153 3.973.094 1.72-.545 3.399-1.757 4.622-1.252 1.252-3.441 2.543-7.913 2.543-7.382 0-11.178-3.796-11.178-11.282V11.682zM365.914 27.476c0-4.085 2.361-6.445 7.415-6.445s7.415 2.36 7.415 6.445v14.901c0 3.724 1.324 5.049 3.541 5.049 3.297 0 4.91-3.724 4.91-3.724V27.476c0-4.085 2.36-6.445 7.415-6.445 5.054 0 7.414 2.36 7.414 6.445V52.54c0 4.012-2.15 6.162-6.162 6.162-3.88 0-5.542-1.862-6.378-4.372l-.25-.749h-.138s-2.943 5.442-11.084 5.442c-8.595 0-14.109-5.514-14.109-15.19l.011-16.358zM411.478 11.682c0-4.084 2.366-6.45 7.415-6.45 5.048 0 7.414 2.366 7.414 6.45v5.946c-.016 2.191-.172 4.379-.465 6.55h.105s2.865-3.618 9.388-3.618c9.238 0 15.4 6.162 15.4 18.198 0 12.713-7.63 20.344-22.316 20.344-9.382 0-13.3-2.006-14.863-3.547-1.324-1.324-2.078-2.72-2.078-5.802V11.682zm14.83 35.816c.998.412 2.074.6 3.153.554 3.685 0 6.228-2.544 6.228-8.557 0-5.541-1.823-7.348-4.333-7.348-3.436 0-5.049 3.73-5.049 3.73v11.62z"/>
    </g>
</svg>
