<svg xmlns="http://www.w3.org/2000/svg" width="480" height="52" viewBox="0 0 480 52">
    <path fill="#2A6395" d="M24.096 41.298c.592 1.163.13 2.587-1.033 3.18L9.023 51.63c-1.163.593-2.587.13-3.18-1.033-.592-1.163-.13-2.586 1.034-3.179l14.04-7.154c1.163-.592 2.586-.13 3.179 1.033zm431.808 0c.593-1.163 2.016-1.625 3.18-1.033l14.04 7.154c1.163.593 1.625 2.016 1.032 3.18-.592 1.162-2.016 1.625-3.179 1.032l-14.04-7.154c-1.163-.592-1.625-2.016-1.033-3.179zM93.07 14.558c11.646 0 18.56 6.914 18.56 17.303 0 11.38-6.98 18.362-19.354 18.362-11.646 0-18.56-6.915-18.56-17.304 0-11.38 6.98-18.362 19.354-18.362zm78.808 0c9.693 0 15.384 5.69 15.384 14.59 0 4.3-2.217 6.484-5.856 6.484h-14.69v.033c.894 2.879 3.21 4.268 7.444 4.268 3.739 0 5.757-1.158 7.61-1.158 2.481 0 3.904 1.92 3.904 4.103 0 1.654-.496 2.746-1.555 3.805-1.621 1.62-5.658 3.54-12.54 3.54-11.81 0-18.361-6.551-18.361-16.675 0-11.646 7.345-18.99 18.66-18.99zm159.17 0c9.694 0 15.385 5.69 15.385 14.59 0 4.3-2.217 6.484-5.856 6.484h-14.69v.033c.893 2.879 3.21 4.268 7.444 4.268 3.739 0 5.757-1.158 7.61-1.158 2.481 0 3.904 1.92 3.904 4.103 0 1.654-.497 2.746-1.555 3.805-1.621 1.62-5.658 3.54-12.54 3.54-11.81 0-18.361-6.551-18.361-16.675 0-11.646 7.344-18.99 18.66-18.99zm93.134 21.14c4.533 0 7.643 2.978 7.643 7.18s-3.177 7.345-7.808 7.345c-4.533 0-7.643-3.011-7.643-7.213s3.308-7.312 7.808-7.312zm-55.285-21.14c10.488 0 15.848 4.135 15.848 12.208V35.3c0 6.22 1.687 7.114 1.687 9.76 0 2.647-2.018 4.798-6.154 4.798-3.87 0-6.087-1.985-7.113-4.169h-.099s-2.845 4.433-10.29 4.433c-7.741 0-12.605-4.863-12.605-11.513 0-6.617 6.849-10.157 16.344-10.157 2.515 0 4.665.397 4.665.397v-1.257c0-2.085-1.059-3.143-5.426-3.143-5.69 0-7.51 1.919-9.892 1.919-2.184 0-3.838-1.522-3.838-4.268 0-1.522.463-2.581 1.489-3.607 1.82-1.82 7.113-3.937 15.384-3.937zm-142.496 0c10.488 0 15.848 4.135 15.848 12.208V35.3c0 6.22 1.687 7.114 1.687 9.76 0 2.647-2.018 4.798-6.154 4.798-3.87 0-6.087-1.985-7.113-4.169h-.099s-2.845 4.433-10.29 4.433c-7.741 0-12.605-4.863-12.605-11.513 0-6.617 6.849-10.157 16.344-10.157 2.515 0 4.665.397 4.665.397v-1.257c0-2.085-1.059-3.143-5.426-3.143-5.69 0-7.51 1.919-9.892 1.919-2.184 0-3.838-1.522-3.838-4.268 0-1.522.463-2.581 1.489-3.607 1.82-1.82 7.113-3.937 15.384-3.937zM398.376.462c4.665 0 6.848 2.184 6.848 5.955v29.479c0 3.077.662 3.739 1.622 3.739.264 0 .694-.067 1.025-.067 1.423 0 2.912 1.158 2.912 3.673 0 1.952-.596 3.242-1.622 4.268-1.158 1.158-3.176 2.349-7.311 2.349-6.816 0-10.323-3.507-10.323-10.422V6.418c0-3.771 2.184-5.955 6.849-5.955zM143.16 14.954c3.408 0 7.213 2.118 7.213 5.724 0 .893-.133 1.621-.662 3.242l-5.393 16.51c-1.125 3.44-2.15 5.36-3.44 6.65-1.556 1.555-4.004 2.646-8.537 2.646-4.433 0-6.848-1.025-8.436-2.613-1.29-1.29-2.382-3.243-3.507-6.65l-5.161-15.716c-.63-1.919-.761-2.713-.761-3.606 0-3.87 4.102-6.187 7.642-6.187 1.919 0 3.342.662 4.235 1.555.893.894 1.356 2.316 1.886 4.235l3.507 12.605c.562 2.019.992 4.533.992 4.533h.133s.463-2.58.96-4.533l3.308-12.803c.43-1.655.893-3.143 1.786-4.037.893-.893 2.316-1.555 4.235-1.555zM48.802 3.606c4.765 0 7.014 2.25 7.014 6.154v28.718h11.216c2.845 0 4.632 1.786 4.632 5.492 0 3.705-1.754 5.492-4.632 5.492h-19.09c-3.87 0-6.154-2.316-6.154-6.154V9.76c0-3.904 2.283-6.154 7.014-6.154zm235.167.265c15.583 0 24.119 8.536 24.119 21.803 0 14.69-9.099 23.788-25.211 23.788h-10.72c-3.87 0-6.153-2.283-6.153-6.154V10.025c0-3.871 2.283-6.154 6.153-6.154h11.812zm-58.726 31.761c-2.448 0-3.804.827-3.804 2.449 0 1.488 1.025 2.514 3.043 2.514 2.78 0 4.202-2.051 4.202-2.051v-2.515s-1.356-.397-3.44-.397zm142.496 0c-2.448 0-3.804.827-3.804 2.449 0 1.488 1.025 2.514 3.043 2.514 2.78 0 4.202-2.051 4.202-2.051v-2.515s-1.356-.397-3.44-.397zM92.607 24.714c-2.746 0-4.996 2.25-4.996 7.61 0 5.492 2.283 7.742 5.128 7.742 2.746 0 4.996-2.25 4.996-7.61 0-5.459-2.283-7.742-5.128-7.742zm190.8-10.52h-3.375v24.945h3.374c6.353 0 10.323-3.97 10.323-12.737 0-8.8-3.408-12.209-10.323-12.209zM424.247 0c10.29 0 14.756 4.466 14.756 11.116 0 8.735-9.131 10.852-9.131 15.253 0 1.356.33 1.952.33 3.043 0 2.283-2.05 3.937-6.517 3.937-4.798 0-7.444-2.646-7.444-7.278 0-7.378 8.8-9.727 8.8-13.598 0-1.29-.86-2.184-4.003-2.184-3.044 0-4.003.96-6.022.96-2.448 0-3.937-1.688-3.937-4.136 0-1.489.53-2.647 1.49-3.606C414.62 1.456 418.887 0 424.247 0zM18.121 24.675c1.306 0 2.364 1.059 2.364 2.364 0 1.306-1.058 2.364-2.364 2.364H2.364C1.058 29.403 0 28.345 0 27.039c0-1.305 1.058-2.364 2.364-2.364H18.12zm459.515 0c1.306 0 2.364 1.059 2.364 2.364 0 1.306-1.058 2.364-2.364 2.364H461.88c-1.306 0-2.364-1.058-2.364-2.364 0-1.305 1.058-2.364 2.364-2.364zm-306.85-.953c-1.952 0-3.54 1.058-4.169 4.73h8.04c-.364-3.374-1.555-4.73-3.871-4.73zm159.17 0c-1.951 0-3.54 1.058-4.168 4.73h8.04c-.364-3.374-1.556-4.73-3.871-4.73zM9.024 4.022l14.04 7.155c1.163.592 1.625 2.016 1.033 3.179-.593 1.163-2.016 1.625-3.18 1.033L6.877 8.235c-1.163-.593-1.625-2.016-1.032-3.18.592-1.162 2.016-1.625 3.179-1.032zm461.954 0c1.163-.592 2.587-.13 3.18 1.034.592 1.163.13 2.586-1.034 3.179l-14.04 7.154c-1.163.592-2.586.13-3.179-1.033-.592-1.163-.13-2.587 1.033-3.18z"/>
</svg>
