<svg xmlns="http://www.w3.org/2000/svg" width="56" height="56" viewBox="0 0 56 56">
    <g fill="#FFF" fill-rule="evenodd">
        <path d="M27.517.943c-7.473 0-8.41.032-11.345.166-2.93.133-4.93.6-6.68 1.278-1.81.703-3.344 1.644-4.874 3.176-1.53 1.53-2.47 3.064-3.174 4.874-.68 1.748-1.146 3.75-1.279 6.68C.031 20.05 0 20.986 0 28.46s.031 8.41.165 11.347c.133 2.927.599 4.927 1.28 6.679.702 1.809 1.643 3.344 3.173 4.872 1.53 1.53 3.064 2.471 4.873 3.174 1.751.68 3.752 1.146 6.681 1.281 2.934.132 3.872.164 11.345.164 7.473 0 8.41-.032 11.345-.164 2.93-.135 4.93-.6 6.68-1.28 1.809-.704 3.344-1.645 4.873-3.175 1.53-1.528 2.471-3.063 3.174-4.872.68-1.752 1.146-3.752 1.278-6.679.135-2.937.167-3.874.167-11.347 0-7.473-.032-8.41-.167-11.344-.132-2.93-.597-4.93-1.278-6.68-.703-1.809-1.644-3.343-3.174-4.873-1.529-1.532-3.064-2.473-4.873-3.176-1.75-.678-3.75-1.145-6.68-1.278C35.927.975 34.99.943 27.517.943m0 4.958c7.347 0 8.217.028 11.117.161 2.684.123 4.142.57 5.11.948 1.286.498 2.202 1.095 3.165 2.057.962.963 1.56 1.881 2.059 3.165.377.969.825 2.426.946 5.109.134 2.901.16 3.771.16 11.12 0 7.346-.026 8.216-.16 11.118-.12 2.683-.569 4.14-.946 5.11-.5 1.285-1.097 2.203-2.059 3.163-.963.965-1.879 1.56-3.165 2.06-.968.376-2.426.825-5.11.948-2.899.13-3.77.16-11.117.16-7.348 0-8.218-.03-11.12-.16-2.682-.123-4.14-.572-5.109-.947-1.285-.501-2.2-1.096-3.164-2.06-.963-.961-1.56-1.879-2.058-3.163-.378-.971-.825-2.428-.948-5.111-.132-2.902-.16-3.772-.16-11.119 0-7.348.028-8.218.16-11.119.123-2.683.57-4.14.948-5.11.499-1.283 1.095-2.201 2.058-3.164.964-.962 1.879-1.559 3.164-2.057.97-.379 2.427-.825 5.11-.948 2.9-.133 3.771-.161 11.12-.161"/>
        <path d="M27.517 37.633c-5.066 0-9.173-4.108-9.173-9.173 0-5.066 4.107-9.171 9.173-9.171 5.065 0 9.172 4.105 9.172 9.171 0 5.065-4.107 9.173-9.172 9.173m0-23.302c-7.806 0-14.13 6.326-14.13 14.13 0 7.804 6.324 14.13 14.13 14.13 7.804 0 14.13-6.326 14.13-14.13 0-7.804-6.326-14.13-14.13-14.13M45.507 13.772c0 1.825-1.478 3.302-3.302 3.302s-3.301-1.477-3.301-3.302 1.477-3.303 3.301-3.303 3.302 1.478 3.302 3.303"/>
    </g>
</svg>
