<svg xmlns="http://www.w3.org/2000/svg" width="100" height="94" viewBox="0 0 100 94">
    <g fill="none">
        <path fill="#F9DC2F" d="M58.955 22.996c10.72 0 20.331 4.698 26.87 12.136 3.686-4.107 10.226-11.409 10.226-11.409l.067-.062c1.128-1.05 1.752-2.406 1.76-3.82l.001-.024c0-1.417-.624-2.758-1.8-3.877-1.347-1.278-2.898-2.386-4.64-3.599C72.706-.709 48.05-1.389 28.62 10.61c-6.893 4.257-12.67 9.779-17.17 16.412-4.347 6.41-7.289 13.527-8.746 21.155-.002.015-.716 4.357-.597 6.855.09 1.863.766 4.648 5.616 5.056.014.001 9.45 1.064 15.715 1.725-.104-1.105-.16-2.225-.16-3.358 0-19.582 15.972-35.458 35.676-35.458z"/>
        <path fill="#E5A42F" d="M97.516 14.443c-1.502-1.427-3.197-2.625-4.883-3.798-18.79-13.09-44.387-14.594-65.111-1.794C12.906 17.877 3.632 32.213.659 47.79c0 0-.824 4.24-.63 7.112.282 4.158 1.082 6.708 7.52 7.25l16.114 1.517c2.538 17.111 17.37 30.245 35.292 30.245 19.703 0 35.675-15.875 35.675-35.459 0-8.19-2.795-15.731-7.486-21.734l10.399-11.548c3.037-2.832 3.414-7.46-.027-10.729zM91.53 57.65c0 18.323-14.947 33.178-33.384 33.178-16.96 0-30.965-12.571-33.1-28.849-.186-1.416-.283-2.862-.283-4.328 0-.874.036-1.74.102-2.597 1.331-17.112 15.724-30.584 33.28-30.584.776 0 1.541.03 2.302.08 9.609.65 18.099 5.34 23.768 12.377 4.577 5.677 7.315 12.882 7.315 20.723zm4.59-33.989l-.068.062s-6.54 7.302-10.226 11.41c-6.539-7.439-16.15-12.137-26.87-12.137-19.704 0-35.676 15.876-35.676 35.458 0 1.133.056 2.253.16 3.357l.024.003c-.009.005-.014.012-.022.017l-.001-.02c-6.266-.66-15.702-1.723-15.715-1.724-4.85-.409-5.527-3.194-5.617-5.057-.119-2.497.595-6.839.598-6.855 1.456-7.627 4.399-14.744 8.746-21.154 4.498-6.633 10.276-12.155 17.17-16.412C48.05-1.388 72.705-.71 91.437 12.34c1.743 1.213 3.294 2.321 4.64 3.6 1.177 1.118 1.801 2.46 1.801 3.876l-.001.024c-.008 1.414-.632 2.77-1.76 3.82z"/>
        <path fill="#F9DC2F" d="M84.215 36.927C78.545 29.89 70.055 25.2 60.447 24.55c-.762-.052-1.527-.081-2.302-.081-17.556 0-31.95 13.472-33.281 30.584-.066.857-.101 1.723-.101 2.597 0 1.466.096 2.912.283 4.328 2.134 16.278 16.14 28.849 33.1 28.849 18.436 0 33.384-14.855 33.384-33.178 0-7.841-2.74-15.046-7.315-20.723zM57.068 87.344c-15.188 0-27.816-10.869-30.45-25.205-.332-1.804-.506-3.663-.506-5.562 0-6.72 2.17-12.936 5.847-17.997 3.575-4.916 8.572-8.741 14.395-10.876 3.338-1.225 6.947-1.893 10.714-1.893 9.106 0 17.295 3.909 22.96 10.133 4.969 5.458 7.995 12.693 7.995 20.633 0 16.992-13.86 30.767-30.955 30.767z"/>
        <path fill="#00ACEC" d="M80.028 35.944c-5.665-6.224-13.854-10.133-22.96-10.133-3.767 0-7.376.668-10.714 1.893-5.822 2.135-10.82 5.96-14.395 10.876-3.678 5.061-5.847 11.277-5.847 17.997 0 1.9.174 3.758.505 5.562 2.635 14.336 15.263 25.205 30.451 25.205 17.095 0 30.956-13.775 30.956-30.767 0-7.94-3.027-15.175-7.996-20.633z"/>
        <path fill="#FFF" d="M69.422 65.229c0 2.324-1.177 7.657-7.485 7.6-4.613-.043-7.565-3.42-7.565-7.883 0-4.465 3.005-8.02 6.897-8.02 1.916 0 3.133.422 3.69.9V48.9c0-1.28.915-2.304 2.233-2.304 1.315 0 2.23 1.025 2.23 2.304V65.23zm-10.585-.555c0 2.192 1.087 3.537 3.06 3.537 1.976 0 3.061-1.345 3.061-3.537 0-2.188-1.085-3.482-3.062-3.482-1.973 0-3.059 1.293-3.059 3.482zM72.486 67.615c1.403 0 2.373 1.28 4.29 1.28.915 0 1.26-.428 1.26-.881 0-.91-.973-.995-3.462-2.019-2.29-.937-3.52-1.792-3.52-4.18 0-2.53 2.174-4.895 5.752-4.895 1.803 0 5.15.844 5.15 3.146 0 1.11-.8 1.749-1.859 1.749-.887 0-2.204-1.11-3.578-1.11-.6 0-1.174.285-1.174.939 0 1.735 6.983 1.335 6.983 6.199 0 3.129-2.66 4.976-5.722 4.976-2.804 0-5.951-1.108-5.951-3.071 0-1.25.829-2.133 1.831-2.133z"/>
        <g fill="#00ACEC">
            <path d="M78.611 8.787l-2.169-1.444c-.617-.41-1.197-.263-1.592.324l-4.64 6.89c-.412.613-.249 1.218.28 1.57.53.354 1.157.273 1.57-.34l1.79-2.66.026.018.518 5.117c.04.364.277.647.501.795.542.36 1.237.15 1.558-.33.116-.17.165-.403.117-.703l-.595-3.624c1.39.64 2.934.548 3.843-.8 1.297-1.924.695-3.55-1.207-4.813zm-.716 3.533c-.463.687-1.203.78-1.882.329l-1.27-.846 1.46-2.169 1.27.844c.678.453.891 1.144.422 1.842zM8.551 38.338c-1.271-.225-2.484.564-2.88 1.767l-.028-.004c-.274-1.008-.884-1.55-1.906-1.733-1.55-.275-2.79.765-3.062 2.276l-.5 2.787c-.12.667.187 1.217.89 1.34l8.196 1.454c.686.121 1.198-.297 1.319-.965l.536-2.99c.36-2.005-.507-3.567-2.565-3.932zm-3.869 3.66l-.203 1.133-2.191-.39.202-1.13c.116-.64.563-1.115 1.249-.995.731.13 1.072.671.943 1.382zm4.458.19l-.307 1.715-2.425-.431.276-1.538c.183-1.017.745-1.457 1.43-1.335.82.143 1.168.806 1.026 1.59zM14.175 30.686c-.194-.077-.434-.077-.717.032l-3.445 1.328c.343-1.484-.066-2.965-1.583-3.57-2.163-.862-3.637.06-4.487 2.17l-.973 2.408c-.275.686-.01 1.22.652 1.483l7.74 3.085c.69.274 1.251-.01 1.489-.6.237-.589.027-1.18-.66-1.454l-2.99-1.19.01-.029 4.932-1.562c.35-.115.58-.406.678-.652.244-.602-.108-1.235-.646-1.45zM8.28 32.375l-.568 1.41-2.439-.971.57-1.41c.303-.753.94-1.104 1.725-.792.772.308 1.015 1.01.712 1.763zM16.257 27.852L9.079 23.46c-.633-.387-1.235-.203-1.569.339-.336.54-.23 1.157.402 1.545l7.178 4.392c.632.387 1.234.201 1.57-.339.333-.54.229-1.159-.403-1.545zM20.82 16.577c-.7-.637-1.302-.684-1.932.002l-1.703 1.852c-.38.412-.415 1.02.044 1.436.45.41 1.057.382 1.468-.064l1.021-1.11c1.249 1.135.82 2.563.027 3.423-1.272 1.382-3.065.972-4.402-.243-1.325-1.205-1.887-2.976-.635-4.337 1.312-1.426 2.252-.85 2.933-1.59.35-.382.325-.945-.146-1.372-.767-.697-2.786-.055-4.298 1.589-2.043 2.219-1.694 5.336.584 7.408 2.267 2.061 5.442 2.128 7.475-.08 2.003-2.177 1.678-4.993-.436-6.914zM28.11 6.553c-.4-.62-1.024-.716-1.561-.374-.54.342-.715.944-.316 1.565l1.693 2.637-3.929 2.491-1.691-2.637c-.4-.621-1.024-.716-1.561-.374-.54.34-.716.943-.316 1.565l4.534 7.062c.4.622 1.023.716 1.562.375.537-.341.714-.943.314-1.565l-1.74-2.712 3.928-2.49 1.74 2.71c.4.622 1.023.717 1.562.376.538-.342.715-.944.317-1.565L28.11 6.553zM35.687 4.734l1.538-.5c.678-.218.797-.801.64-1.278-.16-.49-.67-.853-1.277-.656l-5.191 1.686c-.606.197-.802.79-.64 1.28.156.477.6.876 1.276.656l1.538-.5 2.315 7.039c.23.7.812.946 1.418.749.606-.197.928-.736.699-1.437l-2.316-7.04zM48.936 3.332c-.052-.618.494-1.005 1.13-1.06.886-.076 1.4.324 2.004.272.607-.051.946-.6.897-1.173C52.866.211 50.769.08 49.942.151c-1.968.168-3.556 1.593-3.378 3.65.296 3.408 5.145 1.942 5.295 3.676.062.72-.423 1.31-1.4 1.393-.958.082-1.838-.42-2.533-.36-.606.053-.95.556-.9 1.13.12 1.38 2.598 1.434 3.735 1.337 2.04-.176 3.671-1.633 3.49-3.735-.329-3.792-5.183-2.397-5.315-3.91zM62.501 2.402c.066-.512-.237-1.056-.87-1.138L56.214.573c-.633-.081-1.064.368-1.13.881-.065.497.163 1.047.87 1.137l1.605.206-.952 7.343c-.094.731.326 1.2.96 1.282.63.08 1.156-.268 1.249-1l.951-7.344 1.603.205c.705.09 1.067-.385 1.131-.88zM68.312 3.449c-.706-.266-1.441.04-1.92.585l-5.65 6.452c-.054.059-.186.198-.272.42-.21.55.104 1.143.659 1.351.568.215.976.02 1.278-.354 0 0 1.312-1.616 2.546-3.148.919.376 2.225 2.513 2.139 4.93-.023.63.156.879.74 1.098.512.192 1.003.052 1.207-.485.037-.097.084-.3.084-.553l.239-8.591c.017-.752-.313-1.428-1.05-1.705zm-3.677 5.65l.035-.044-.035.044zm2.814-2.865c-.037.39-.143 2.687-.143 2.687s-1.348-.709-1.712-.85c-.024-.01-.05-.014-.074-.016.782-.97 1.433-1.789 1.552-1.952.188-.262.412-.256.377.131z" transform="translate(8.491 7.636)"/>
        </g>
        <g>
            <path fill="#FFF" d="M19.596 11.772h.001l-2.805-3.367c-.15-.181-.248-.645-.184-.873L17.81 3.33c.192-.667.047-1.276-.393-1.673-.442-.395-1.068-.477-1.712-.221l-4.09 1.61c-.22.085-.692.035-.889-.095L7.073.516C6.495.129 5.866.076 5.351.37c-.515.293-.785.86-.74 1.551l.277 4.36c.013.237-.181.668-.368.813l-3.458 2.7c-.55.43-.793 1.008-.671 1.583.123.578.579 1.009 1.254 1.18.002.002 4.26 1.086 4.26 1.086.23.06.584.378.666.598l1.514 4.103c.238.65.713 1.06 1.304 1.122.592.066 1.146-.234 1.519-.82.003 0 2.358-3.69 2.358-3.69.126-.2.54-.434.778-.445l4.392-.162c.699-.027 1.237-.352 1.48-.89.24-.54.125-1.153-.32-1.688z" transform="translate(41.244 35.366)"/>
            <path fill="#E5A42F" d="M14.57 6.96l.906-3.167c-1.213.475-3.081 1.212-3.083 1.21-.873.346-2.071.217-2.85-.305l-2.75-1.833c.08 1.292.208 3.285.208 3.285.034.54-.116 1.131-.392 1.649-.202.375-.469.71-.78.954 0 0-1.581 1.232-2.607 2.034l3.209.817c.912.233 1.806 1.038 2.129 1.913 0 0 .69 1.874 1.14 3.091l1.774-2.777c.5-.788 1.545-1.386 2.487-1.424 0 0 2.007-.074 3.311-.12l-2.11-2.538c-.598-.715-.848-1.888-.592-2.79z" transform="translate(41.244 35.366)"/>
        </g>
        <path fill="#FFF" d="M52.789 59.25c0-1.281-.915-2.305-2.231-2.305-1.317 0-2.233 1.024-2.233 2.304v8.233c.03 1.945-1.92-.322-2.529-.908l-2.877-2.889 2.402-2.36c1.058-1.022 1.573-1.535 1.573-2.33 0-1.083-.858-2.05-2.174-2.05-1.087 0-1.745.77-2.517 1.536l-3.633 3.611V48.93c0-1.281-.916-2.303-2.233-2.303-1.317 0-2.232 1.022-2.232 2.303v21.53c0 1.282 1.013 2.402 2.33 2.402 1.315 0 2.134-1.12 2.134-2.402v-5.353l4.03 4.553c1.736 1.816 3.373 3.202 5.76 3.202 3.736 0 4.397-2.279 4.451-3.946l-.021-9.667z"/>
        <path fill="#00ACEC" d="M96.9 35.135c.58 0 1.119.156 1.615.469.495.312.875.729 1.138 1.25.232.454.347.933.347 1.437 0 .592-.153 1.139-.46 1.641-.306.503-.723.89-1.25 1.16-.45.233-.928.35-1.434.35-.595 0-1.145-.155-1.648-.462-.503-.308-.891-.727-1.163-1.258-.234-.456-.351-.933-.351-1.431 0-.604.154-1.157.464-1.657.309-.501.733-.887 1.272-1.158.453-.227.943-.34 1.47-.34zm-.013.617c-.712 0-1.308.245-1.788.735s-.72 1.09-.72 1.803c0 .474.122.915.365 1.323.244.407.576.72.995.938.352.182.722.274 1.112.274.695 0 1.281-.25 1.76-.75.47-.495.704-1.09.704-1.784 0-.477-.119-.918-.357-1.323-.237-.404-.564-.717-.981-.938-.349-.186-.712-.278-1.09-.278zm-.441 2.899v.821c0 .156-.02.27-.058.34-.077.141-.203.212-.38.212-.18 0-.307-.07-.384-.212-.038-.07-.057-.184-.057-.34v-2.34c0-.148.011-.252.035-.314.047-.124.134-.206.262-.248.07-.023.18-.035.328-.035h.726c.364 0 .662.087.895.26.26.192.39.464.39.817 0 .513-.27.828-.81.945l.662.69c.137.14.205.265.205.37 0 .118-.044.216-.131.294-.088.078-.192.117-.314.117-.133 0-.271-.084-.413-.251l-.956-1.126zm0-.653h.479c.275 0 .413-.118.413-.352 0-.116-.043-.208-.127-.276-.084-.069-.185-.103-.304-.103h-.461v.73z"/>
    </g>
</svg>
