<svg xmlns="http://www.w3.org/2000/svg" xmlns:xlink="http://www.w3.org/1999/xlink" width="56" height="56" viewBox="0 0 56 56">
    <defs>
        <path id="prefix__a" d="M0 0L55.966 0 55.966 55.966 0 55.966z"/>
    </defs>
    <g fill="none" fill-rule="evenodd">
        <mask id="prefix__b" fill="#fff">
            <use xlink:href="#prefix__a"/>
        </mask>
        <path fill="#FFF" d="M27.985 0C12.529 0 0 12.528 0 27.983 0 39.84 7.375 49.973 17.786 54.05c-.246-2.213-.466-5.62.097-8.036.51-2.185 3.283-13.91 3.283-13.91s-.84-1.676-.84-4.154c0-3.892 2.255-6.796 5.065-6.796 2.386 0 3.54 1.792 3.54 3.941 0 2.4-1.528 5.992-2.319 9.317-.657 2.787 1.398 5.057 4.146 5.057 4.973 0 8.797-5.244 8.797-12.814 0-6.7-4.816-11.385-11.688-11.385-7.964 0-12.637 5.973-12.637 12.144 0 2.405.927 4.985 2.083 6.387.227.276.26.52.192.801-.212.885-.684 2.786-.777 3.174-.12.514-.404.621-.933.375-3.498-1.627-5.68-6.738-5.68-10.84 0-8.828 6.412-16.934 18.489-16.934 9.707 0 17.25 6.916 17.25 16.16 0 9.645-6.082 17.407-14.522 17.407-2.836 0-5.499-1.474-6.412-3.214 0 0-1.403 5.343-1.745 6.652-.632 2.43-2.336 5.479-3.478 7.338 2.62.81 5.4 1.246 8.288 1.246 15.454 0 27.981-12.527 27.981-27.983C55.966 12.528 43.44 0 27.985 0" mask="url(#prefix__b)"/>
    </g>
</svg>
